HIERARCHY
ROOT Hips
{
	OFFSET -0.179506 -22.333345 2.821913
	CHANNELS 6 Xposition Yposition Zposition Zrotation Yrotation Xrotation 
	JOINT LeftUpLeg
	{
		OFFSET 6.951974 -9.140623 -0.681533
		CHANNELS 3 Zrotation Yrotation Xrotation
		JOINT LeftLeg
		{
			OFFSET 3.427654 -37.519855 -0.449580
			CHANNELS 3 Zrotation Yrotation Xrotation
			JOINT LeftFoot
			{
				OFFSET -1.359570 -39.796059 -4.369333
				CHANNELS 3 Zrotation Yrotation Xrotation
				JOINT LeftToe
				{
					OFFSET 2.635814 -5.579078 11.928840
					CHANNELS 3 Zrotation Yrotation Xrotation
					End Site
					{
						OFFSET 0.000000 0.000000 0.000000
					}
				}
			}
		}
	}
	JOINT RightUpLeg
	{
		OFFSET -6.767048 -9.052170 -0.431982
		CHANNELS 3 Zrotation Yrotation Xrotation
		JOINT RightLeg
		{
			OFFSET -3.829005 -38.256897 -0.885003
			CHANNELS 3 Zrotation Yrotation Xrotation
			JOINT RightFoot
			{
				OFFSET 1.577377 -39.841461 -4.231180
				CHANNELS 3 Zrotation Yrotation Xrotation
				JOINT RightToe
				{
					OFFSET -2.537174 -4.814398 12.334795
					CHANNELS 3 Zrotation Yrotation Xrotation
					End Site
					{
						OFFSET 0.000000 0.000000 0.000000
					}
				}
			}
		}
	}
	JOINT Spine
	{
		OFFSET -0.253288 10.896323 -2.669631
		CHANNELS 3 Zrotation Yrotation Xrotation
		JOINT Spine1
		{
			OFFSET 0.548704 13.518043 0.109247
			CHANNELS 3 Zrotation Yrotation Xrotation
			JOINT Spine2
			{
				OFFSET 0.145701 5.292222 2.542457
				CHANNELS 3 Zrotation Yrotation Xrotation
				JOINT Neck
				{
					OFFSET -0.277840 21.387037 -4.285703
					CHANNELS 3 Zrotation Yrotation Xrotation
					JOINT Head
					{
						OFFSET 0.515184 6.496960 5.134897
						CHANNELS 3 Zrotation Yrotation Xrotation
						End Site
						{
							OFFSET 0.000000 0.000000 0.000000
						}
					}
				}
				JOINT LeftShoulder
				{
					OFFSET 7.884473 12.174932 -3.408961
					CHANNELS 3 Zrotation Yrotation Xrotation
					JOINT LeftArm
					{
						OFFSET 9.097692 3.046888 -0.886815
						CHANNELS 3 Zrotation Yrotation Xrotation
						JOINT LeftForeArm
						{
							OFFSET 25.961220 -1.277207 -2.745643
							CHANNELS 3 Zrotation Yrotation Xrotation
							JOINT LeftHand
							{
								OFFSET 24.923361 0.898606 -0.117091
								CHANNELS 3 Zrotation Yrotation Xrotation
								End Site
								{
									OFFSET 0.000000 0.000000 0.000000
								}
							}
						}
					}
				}
				JOINT RightShoulder
				{
					OFFSET -8.175920 11.883285 -3.861528
					CHANNELS 3 Zrotation Yrotation Xrotation
					JOINT RightArm
					{
						OFFSET -9.601238 3.255117 -0.914307
						CHANNELS 3 Zrotation Yrotation Xrotation
						JOINT RightForeArm
						{
							OFFSET -25.374195 -1.332924 -2.140099
							CHANNELS 3 Zrotation Yrotation Xrotation
							JOINT RightHand
							{
								OFFSET -25.529810 0.777228 -0.555919
								CHANNELS 3 Zrotation Yrotation Xrotation
								End Site
								{
									OFFSET 0.000000 0.000000 0.000000
								}
							}
						}
					}
				}
			}
		}
	}
}
MOTION
Frames: 9
Frame Time: 0.033333
9.493799 0.075543 84.930527 179.102475 1.063911 96.596055 12.133056 5.396906 -47.192581 -15.114524 7.372272 59.188376 4.382745 7.601507 -23.291163 nan nan nan -7.467271 -7.576070 -47.085202 9.443251 -10.665997 57.685368 3.232251 2.107154 -17.238422 nan nan nan 3.792853 -1.386374 71.069158 -4.961051 -5.839811 -1.759787 3.642237 -1.553348 0.230045 -17.878212 -5.889421 1.130858 13.622853 4.775899 -29.558988 -0.014589 -50.537168 -3.284951 -19.001643 -23.175654 -8.461941 11.207783 -20.496068 -25.440453 15.606579 -13.356482 -50.606997 -21.071645 52.733469 -13.029984 14.868163 31.202394 -22.121411 -1.266244 17.993062 -23.929734 -13.259967 11.688729 -40.957452 
9.444436 0.137306 85.308411 179.113102 0.978937 96.498727 11.915375 5.239781 -46.563802 -14.995201 7.188830 58.406052 4.363093 7.551307 -23.053258 nan nan nan -7.534472 -7.569753 -46.454624 9.531389 -10.478002 56.913277 3.310967 2.022171 -17.000153 nan nan nan 3.810513 -1.244614 69.989372 -4.862148 -5.807843 -1.217113 3.813866 -1.674129 0.041334 -17.580322 -6.353779 1.124071 12.840367 5.609665 -30.054117 -1.466062 -50.141726 -2.354431 -19.504742 -22.880473 -8.177235 11.416612 -21.351585 -25.141826 15.404909 -13.384635 -50.146425 -20.170608 52.617854 -12.180750 15.583876 31.117067 -21.465228 -1.484540 18.756368 -24.020833 -13.387976 11.788301 -40.753824 
9.441815 0.189209 85.657516 179.021523 0.973329 96.475194 11.935093 5.149789 -46.014088 -14.884359 7.193732 57.672550 4.236970 7.385267 -22.837414 nan nan nan -7.450566 -7.314399 -45.999239 9.465297 -10.299245 56.182786 3.204505 1.775889 -16.775036 nan nan nan 3.645185 -1.094205 68.815127 -4.789886 -5.747876 -0.715329 3.703889 -1.544038 -0.016954 -17.524004 -6.211301 0.629060 13.108978 5.085958 -30.052841 -2.162534 -49.536319 -1.949167 -20.333956 -22.904546 -7.605235 11.610177 -22.077200 -25.010934 15.378544 -13.349232 -50.152952 -18.700145 52.203509 -11.318437 16.371724 31.271975 -20.687783 -1.684375 19.615460 -23.685943 -13.587061 11.740097 -40.623786 
9.466539 0.257733 86.016212 178.969860 1.016831 96.420305 12.000703 5.131642 -45.398278 -14.849948 7.146198 56.923193 4.214232 7.255816 -22.690875 nan nan nan -7.243867 -7.018103 -45.447865 9.371680 -10.030926 55.418076 3.009119 1.404689 -16.659616 nan nan nan 3.521101 -0.930235 67.748155 -4.686073 -5.625690 -0.217120 3.796037 -1.500815 -0.252150 -17.372046 -6.334722 0.352130 12.827560 5.422989 -30.114226 -3.084678 -48.877625 -1.492119 -21.243507 -22.942719 -7.117051 11.790813 -22.834039 -24.798277 15.691040 -13.166357 -50.332122 -17.553583 51.902643 -10.474541 17.293427 31.321603 -19.817204 -2.024055 20.483612 -23.602227 -13.691364 11.679748 -40.759303 
9.478536 0.332210 86.397285 178.925105 1.026831 96.333134 11.996649 5.143059 -44.704695 -14.906440 7.024319 56.073348 4.285825 7.196578 -22.438700 nan nan nan -7.144582 -6.761465 -44.787952 9.312134 -9.835514 54.598132 2.887930 1.143775 -16.516050 nan nan nan 3.443472 -0.736994 66.818042 -4.543860 -5.511089 0.102700 3.790268 -1.502442 -0.320397 -16.966545 -6.454646 -0.173169 12.699254 5.310054 -29.918556 -3.733739 -48.258771 -1.091788 -22.250473 -22.935689 -6.542147 12.236113 -23.587721 -24.446632 15.938116 -13.062512 -50.342767 -16.524407 51.452750 -9.844587 18.334635 31.355029 -18.910475 -2.337852 21.380505 -23.292304 -13.903052 11.732214 -41.149755 
9.481031 0.399095 86.754402 178.842414 1.048543 96.383462 12.068757 5.292582 -44.166002 -15.059802 7.042518 55.200454 4.518358 7.126413 -22.089983 nan nan nan -7.135849 -6.510689 -44.307857 9.297149 -9.811209 53.795003 2.902134 1.007114 -16.250504 nan nan nan 3.410837 -0.666714 65.770400 -4.518714 -5.422070 0.302993 3.714654 -1.537652 -0.387895 -16.895820 -6.522216 -0.406261 12.638072 5.361721 -30.239365 -4.520866 -47.642347 -0.475744 -23.121413 -22.598326 -6.167472 12.643747 -24.638555 -23.912724 15.662183 -13.139467 -50.170775 -15.528259 51.128011 -9.063338 19.391714 31.392144 -18.274429 -2.745648 22.162556 -22.816560 -13.712232 11.913614 -41.312846 
9.494434 0.491670 87.089760 178.765166 1.076044 96.470775 12.204896 5.610928 -43.619462 -15.357960 7.110436 54.282155 4.670022 6.948791 -21.732246 nan nan nan -7.095458 -6.281523 -43.866131 9.178338 -9.762690 53.036025 3.077173 1.019858 -16.006794 nan nan nan 3.336930 -0.664303 64.624883 -4.503358 -5.357804 0.387380 3.533536 -1.497337 -0.281176 -16.723268 -6.383393 -0.585427 12.898736 5.147737 -30.262893 -5.392848 -46.977268 0.103066 -23.792052 -22.274750 -5.730465 12.851367 -25.670574 -23.457041 15.343546 -13.334726 -49.973060 -14.256993 50.779611 -8.140337 20.423201 31.453513 -17.428458 -3.426266 23.004024 -22.512159 -13.728134 11.773742 -41.187366 
9.504612 0.599581 87.416779 178.770421 1.149211 96.422157 12.166462 5.164195 -43.120152 -14.726553 7.004919 53.730292 4.481272 6.857217 -21.665530 nan nan nan -6.976654 -6.076333 -43.252879 8.962395 -9.698742 52.249327 3.206122 1.107262 -15.839975 nan nan nan 3.301836 -0.668652 63.558506 -4.447171 -5.333943 0.735913 3.488757 -1.436124 -0.491121 -16.648424 -6.396303 -0.387464 12.568655 5.475012 -30.683611 -6.587116 -46.445410 0.823534 -24.307778 -21.965673 -5.456724 13.015230 -26.335852 -23.330647 14.649578 -13.732466 -49.347416 -12.920629 50.592786 -7.095039 21.192022 31.370952 -16.617891 -3.915449 23.840962 -22.376631 -13.877544 11.619767 -40.662269 
9.505338 0.679132 87.741516 178.800247 1.229194 96.492381 12.201591 4.809653 -42.747824 -14.272588 7.033076 53.112472 4.337540 6.666088 -21.547013 nan nan nan -6.858570 -5.881093 -42.806136 8.814797 -9.693139 51.479481 3.214403 0.993662 -15.642565 nan nan nan 3.258344 -0.672381 62.266892 -4.331359 -5.316242 1.230710 3.388536 -1.353339 -0.596864 -16.339273 -6.379828 -0.553185 12.314655 5.479832 -30.830628 -7.426557 -45.636704 1.261762 -24.990970 -21.940424 -5.152785 13.203566 -27.091016 -23.121804 13.997921 -14.098984 -48.903086 -11.580259 50.118496 -6.150267 21.919356 31.462729 -15.778306 -4.331769 24.694123 -22.063679 -13.708420 11.528455 -40.290223 
